<svg width="1024" height="677" viewBox="0 0 1024 677" fill="none" xmlns="http://www.w3.org/2000/svg">
<mask id="mask0_52_139" style="mask-type:luminance" maskUnits="userSpaceOnUse" x="0" y="0" width="1024" height="677">
<path d="M984 0H40C17.9086 0 0 17.9086 0 40V637C0 659.091 17.9086 677 40 677H984C1006.09 677 1024 659.091 1024 637V40C1024 17.9086 1006.09 0 984 0Z" fill="white"/>
</mask>
<g mask="url(#mask0_52_139)">
<path d="M984 0H40C17.9086 0 0 17.9086 0 40V637C0 659.091 17.9086 677 40 677H984C1006.09 677 1024 659.091 1024 637V40C1024 17.9086 1006.09 0 984 0Z" fill="url(#paint0_radial_52_139)"/>
<path d="M984 0H40C17.9086 0 0 17.9086 0 40V637C0 659.091 17.9086 677 40 677H984C1006.09 677 1024 659.091 1024 637V40C1024 17.9086 1006.09 0 984 0Z" fill="#7D4620"/>
<g filter="url(#filter0_f_52_139)">
<path d="M925.928 0.736059L331.271 -158.602L100.197 703.775L694.855 863.113L925.928 0.736059Z" fill="#9C5D2D"/>
</g>
<mask id="mask1_52_139" style="mask-type:luminance" maskUnits="userSpaceOnUse" x="-169" y="-206" width="1303" height="1131">
<path d="M1133.3 -205.114H-168.696V924.886H1133.3V-205.114Z" fill="white"/>
</mask>
<g mask="url(#mask1_52_139)">
<g opacity="0.15">
<path d="M234.778 -194.249C232.608 -181.79 232.753 -181.935 213.946 -172.518C203.385 -167.158 202.083 -165.999 198.322 -158.9C195.573 -153.685 193.837 -147.021 192.825 -139.343C190.51 -120.654 188.919 -114.28 184.868 -107.761C181.107 -101.966 180.962 -100.517 180.817 -82.6977C180.673 -65.3131 180.383 -63.2849 176.911 -57.2003C174.163 -52.2747 172.861 -47.349 172.137 -38.367C171.559 -31.7029 170.546 -25.6183 169.823 -24.8939C167.363 -22.4311 168.087 27.2599 170.546 36.0971C173.439 45.8035 176.477 47.8317 189.353 48.701C194.995 49.1356 200.781 50.2945 202.373 51.1638C206.279 53.6266 217.852 48.701 221.324 43.051C222.771 40.8779 226.098 35.5176 228.702 31.3163C231.451 27.1151 234.199 20.5958 234.923 16.8292C239.263 -6.06056 241.288 -10.2618 252.572 -17.2157C258.503 -21.1272 259.082 -21.9965 262.265 -33.5862C265.447 -44.8862 266.026 -46.0452 269.787 -46.7695C276.876 -48.2183 279.769 -52.7093 281.216 -65.8926C281.939 -72.4118 282.952 -78.3516 283.531 -79.2208C283.965 -80.09 284.833 -84.1465 285.556 -88.2029C289.173 -111.962 292.066 -125.58 295.104 -131.954C296.985 -136.011 299.155 -143.689 299.878 -149.049C300.601 -154.264 301.614 -159.19 302.048 -160.059C303.205 -161.798 298.287 -172.663 293.657 -178.893C290.764 -182.804 289.896 -185.702 289.896 -191.207C289.896 -206.128 291.777 -205.114 262.409 -205.114H236.803L234.778 -194.249Z" fill="#FAEADE"/>
<path d="M807.369 -167.448C805.343 -165.854 801.582 -164.55 798.689 -164.55C793.191 -164.55 789.285 -161.508 782.341 -151.512C777.857 -144.848 773.661 -142.24 760.786 -137.749C751.961 -134.562 741.979 -124.856 740.677 -117.902C739.665 -112.831 735.759 -99.0684 733.878 -94.2876C728.091 -79.0761 726.645 -65.7479 730.406 -60.8222C731.708 -59.0837 732.576 -54.4479 732.576 -47.2043C732.576 -34.8902 733.155 -33.5863 738.652 -32.1376C741.111 -31.5581 743.571 -29.385 745.017 -26.7773C747.187 -22.2863 748.2 -22.1414 754.71 -24.7491C756.88 -25.6184 757.169 -24.7491 757.169 -15.6222C757.169 -4.32221 758.761 1.18291 763.245 5.96368C767.441 10.4547 768.743 10.165 775.831 3.50085C779.159 0.31367 783.209 -2.29402 784.801 -2.29402C790.877 -2.29402 798.978 -8.52349 802.45 -16.0568C808.237 -28.3709 809.683 -33.0068 810.696 -45.0312C811.709 -55.462 816.483 -77.0478 818.653 -80.6696C819.231 -81.394 820.099 -85.0158 820.823 -88.9273C824.005 -106.167 825.597 -111.093 831.962 -123.986C838.761 -137.459 838.761 -138.039 838.472 -149.918C838.038 -161.943 836.013 -167.593 831.239 -169.621C828.49 -170.635 824.005 -168.027 822.993 -164.55C821.835 -160.929 816.483 -160.639 816.483 -164.261C816.483 -166.868 813.879 -170.345 811.998 -170.345C811.564 -170.345 809.394 -169.041 807.369 -167.448Z" fill="#FAEADE"/>
<path d="M50.3283 -137.894C48.4476 -136.445 46.7116 -136.3 43.6736 -137.314C41.359 -138.184 36.8743 -138.329 33.4023 -137.894C30.075 -137.314 24.1436 -136.735 20.2376 -136.445C15.753 -136.156 12.4256 -134.997 11.413 -133.548C10.4003 -132.244 7.79628 -131.23 5.48162 -131.23C-0.0157161 -131.23 -5.80239 -127.898 -17.665 -118.191C-33.1444 -105.298 -37.0504 -101.241 -37.0504 -98.1991C-37.0504 -96.4606 -37.629 -94.7222 -38.497 -94.2876C-39.365 -93.8529 -39.9437 -91.3901 -39.9437 -89.0722C-39.9437 -84.4363 -45.007 -73.2811 -47.177 -73.2811C-49.0577 -73.2811 -49.781 -69.9491 -51.517 -54.4478C-52.819 -42.5683 -53.687 -40.1055 -57.159 -36.3388C-64.103 -28.8055 -65.9837 -24.4594 -66.9964 -13.594C-67.4304 -7.79911 -69.311 0.313709 -71.1917 4.37012C-74.519 12.0483 -74.6637 18.2778 -72.0597 33.0547C-70.7577 40.0086 -70.0344 40.8778 -62.6564 44.9342C-59.4737 46.6727 -58.7504 47.9765 -58.7504 52.7573C-58.7504 55.7996 -59.4737 58.8419 -60.197 59.2765C-60.9204 59.7112 -61.6437 61.3047 -61.6437 62.7535C-61.6437 64.2022 -62.9457 67.0996 -64.537 69.1278C-68.7324 74.3432 -68.1537 79.7035 -63.0904 84.9188C-60.0524 87.8163 -58.7504 90.5688 -58.7504 93.756C-58.7504 99.406 -57.3037 101.724 -52.819 104.042C-50.3597 105.201 -49.0577 107.374 -48.6237 110.851C-47.4664 118.819 -36.327 132.437 -30.8297 132.437C-28.949 132.437 -25.1877 134.175 -22.439 136.203C-17.9544 139.68 -16.6524 139.825 -7.10439 139.246C7.94094 138.087 8.37495 138.666 7.50695 156.486C6.92828 165.612 5.91562 172.421 4.32428 175.174C3.02228 177.492 2.00962 180.244 2.00962 181.114C2.00962 181.838 0.562945 185.46 -1.17305 189.082C-3.92172 194.442 -4.50039 198.933 -5.22372 216.897C-5.80239 230.225 -6.81505 238.918 -7.82772 239.932C-10.721 242.829 -9.85305 250.507 -6.23639 253.839C-4.35572 255.578 -1.89639 257.027 -0.594391 257.027C0.562942 257.027 4.17962 259.055 7.21762 261.518C10.979 264.415 13.7276 265.574 15.753 264.994C17.3443 264.56 20.6716 263.835 23.131 263.256C27.7603 262.532 27.7603 262.532 30.075 270.934C34.5596 287.015 33.8363 286.291 49.7496 288.753C56.8383 289.912 58.1403 289.768 61.0336 287.015C62.7696 285.421 64.2163 283.248 64.2163 282.234C64.2163 281.22 65.8076 278.468 67.833 276.15C69.8583 273.832 73.3303 268.182 75.7896 263.546C80.419 254.853 85.3376 247.03 87.9416 244.712C90.6903 242.25 95.4643 234.861 98.9363 228.052C100.672 224.43 103.565 219.939 105.301 217.911C110.365 212.261 115.139 199.368 116.007 189.371C116.875 178.651 113.403 164.453 108.339 157.789C105.446 154.023 101.974 143.447 96.1876 121.137C94.5963 115.487 91.1243 111.286 85.627 108.388C75.7896 103.318 75.0663 97.6676 81.1423 72.315C86.061 51.4535 87.363 20.7406 83.6016 13.3522C82.2996 10.7445 75.645 3.06629 68.701 -3.59782L56.2596 -15.767L55.8256 -26.0529C55.247 -37.6427 57.851 -43.8722 67.1096 -54.0132C79.8403 -67.6311 85.9163 -82.4081 85.9163 -99.0683C85.9163 -108.34 85.193 -111.382 82.2996 -116.598C80.2743 -119.93 78.683 -123.986 78.683 -125.435C78.683 -126.884 75.9343 -130.216 72.607 -132.968C65.3736 -138.763 54.813 -141.081 50.3283 -137.894Z" fill="#FAEADE"/>
<path d="M907.623 -85.5954C905.597 -84.4364 902.704 -82.9877 901.113 -82.1185C897.207 -80.38 892.722 -75.5992 884.91 -65.3133C876.809 -54.5928 874.205 -49.3774 873.626 -43.7274C872.035 -28.0813 869.575 -18.6646 865.959 -14.1736C858.147 -4.3223 858.147 -4.46718 860.027 -0.265892C861.474 2.92129 861.329 3.93539 859.159 6.39821C857.713 7.9918 855.398 9.29564 853.951 9.29564C852.071 9.29564 849.756 12.1931 846.718 18.2777C840.353 30.8815 836.736 35.3726 832.975 35.3726C831.239 35.3726 826.465 37.111 822.414 39.1392C817.061 41.8918 815.036 43.92 815.036 46.0931C815.036 53.4815 811.853 60.2905 807.079 63.0431C804.475 64.6367 801.871 67.3892 801.293 69.1277C800.135 72.3149 800.135 72.3149 799.557 68.8379C799.123 66.6649 799.701 64.6367 801.003 63.6226C803.752 61.5943 809.249 52.6123 809.249 50.0046C809.249 48.1213 814.313 37.111 820.244 26.2456C821.401 24.0726 822.993 19.002 823.571 14.9456C824.295 10.8892 825.452 6.97769 826.465 5.96358C827.333 5.09435 828.056 0.168722 828.056 -4.75692C828.056 -15.9121 825.307 -21.1274 819.521 -21.1274C816.338 -21.1274 814.891 -19.9685 812.432 -14.7531C810.696 -11.2762 809.249 -7.50948 809.249 -6.20564C809.249 -4.90179 806.935 -2.14923 804.331 -0.121025C798.833 4.08026 793.915 12.9174 792.468 20.8854C790.732 31.461 786.826 43.0508 783.933 46.0931C778.58 51.8879 776.41 56.2341 775.397 63.3328C774.529 69.4174 773.951 70.1418 771.491 69.4174C767.585 68.1136 763.39 73.6187 762.088 81.4418C761.654 84.7738 760.641 87.961 759.918 88.3956C759.195 88.8302 758.616 93.0315 758.616 97.6674C758.616 104.766 759.05 106.505 761.509 107.808C763.679 108.967 765.126 108.823 767.441 107.374C771.202 104.621 775.976 95.2046 775.976 90.4238C775.976 85.2085 777.133 84.3392 781.184 87.0918C785.669 89.9892 787.983 88.9751 791.455 82.311C796.229 72.8943 797.531 74.4879 797.097 89.5546C796.808 100.565 797.242 104.621 799.412 109.402C801.148 113.314 802.016 118.819 802.016 125.338C802.016 130.698 802.739 135.624 803.463 136.058C804.331 136.493 804.909 138.956 804.909 141.419C804.909 143.882 806.356 148.083 807.947 150.835C810.841 155.471 810.985 156.63 809.539 167.64C808.381 176.623 808.526 183.287 809.973 194.732C811.13 203.134 811.998 210.088 811.998 210.233C812.143 210.523 814.313 213.13 817.061 216.028C820.967 220.374 822.125 223.271 822.993 230.08C824.873 245.726 833.698 249.058 838.617 236.02C840.063 231.964 841.655 227.183 842.089 225.155C842.523 223.126 844.114 219.939 845.561 218.056C847.007 216.173 850.913 206.176 854.096 195.601C857.423 185.17 860.606 175.464 861.474 174.16C862.197 172.711 862.776 169.669 862.776 167.496C862.776 162.57 869.286 153.008 875.507 148.517C877.821 146.924 880.281 143.737 880.715 141.708C881.293 139.535 882.74 136.928 883.753 135.769C884.91 134.61 885.923 132.437 885.923 130.988C885.923 125.773 896.194 125.483 898.075 130.698C901.113 139.246 901.547 141.853 900.389 148.807C898.653 159.962 896.773 166.626 891.709 179.52C885.633 195.166 884.476 197.484 879.991 203.424C875.796 209.074 868.997 227.762 866.971 238.628C866.393 242.394 863.789 249.638 861.474 254.419C856.7 263.98 855.977 269.051 858.725 275.425C859.738 277.598 860.895 288.608 861.329 299.764L862.053 320.19L867.116 326.565C872.035 332.794 872.035 333.084 872.179 346.992C872.179 360.465 873.771 365.68 877.532 365.68C879.847 365.68 893.011 352.497 894.024 349.165C895.037 345.543 903.283 332.07 905.308 330.621C908.491 328.448 908.491 331.49 905.308 344.094C900.968 360.61 898.509 365.68 892.288 371.33C887.659 375.676 887.369 376.401 887.369 385.962C887.369 391.467 886.791 396.248 886.067 396.683C885.489 397.117 884.476 404.361 883.897 412.764C883.319 421.166 882.306 429.714 881.438 431.887C879.268 437.537 878.979 476.362 881.149 478.825C882.017 479.984 883.174 484.765 883.753 489.546C885.199 501.715 887.803 506.206 893.301 506.206C899.955 506.206 902.125 512.87 902.125 533.732C902.125 546.48 902.704 551.261 904.44 554.303C907.478 559.664 909.359 559.374 913.699 553.144C918.039 547.06 920.209 548.798 917.749 556.331C915.001 564.589 916.447 586.465 920.064 590.376C922.234 592.694 923.102 597.04 924.259 608.775C925.561 622.248 925.995 624.276 928.31 624.276C930.191 624.276 931.927 621.524 934.675 613.411C936.845 607.037 940.317 600.373 943.211 597.185C948.274 591.535 953.048 582.698 954.639 576.034C955.218 573.861 957.388 568.79 959.413 564.879C963.753 556.766 967.659 555.173 973.446 558.939C975.327 560.243 979.522 561.257 982.56 561.257C987.479 561.257 989.07 560.388 993.555 555.462C996.448 552.275 998.763 548.798 998.763 547.639C998.763 546.48 999.486 545.321 1000.21 545.032C1001.8 544.597 1007.44 523.735 1007.44 518.52C1007.44 516.926 1009.32 510.552 1011.78 504.467C1014.53 497.079 1016.27 489.546 1016.85 482.012C1018.15 462.02 1019.16 454.921 1021.19 448.257C1023.65 440.724 1029.14 416.24 1029.87 409.866C1030.16 407.403 1031.31 402.912 1032.18 399.58C1033.63 394.799 1033.63 391.612 1031.89 382.92C1030.45 374.952 1030.16 369.012 1031.17 359.596C1032.76 343.66 1029.29 310.049 1025.53 304.255C1023.21 300.778 1022.2 300.488 1013.09 300.488C1001.66 300.488 1001.08 299.764 1001.95 286.58C1002.38 279.771 1002.52 279.482 1007.01 279.047C1013.23 278.467 1017.28 273.107 1024.08 256.447C1028.85 244.857 1029.29 242.684 1028.85 232.543C1028.56 226.458 1027.41 218.49 1026.25 214.724C1024.37 208.494 1024.51 207.19 1027.12 199.657C1030.45 189.661 1033.77 186.908 1037.53 191.11C1039.85 193.717 1040.14 195.89 1039.13 213.565C1038.69 224.285 1037.53 235.73 1036.67 238.917C1035.8 242.105 1034.79 251.521 1034.5 259.924C1034.06 268.326 1033.05 277.453 1032.18 280.206C1029.58 288.464 1030.16 291.651 1034.21 292.665C1036.23 293.099 1038.69 295.273 1039.7 297.446C1041.01 300.198 1042.45 301.067 1045.06 300.778C1049.83 300.198 1050.84 298.17 1050.55 288.898C1050.26 282.379 1051.13 279.192 1055.04 271.514C1059.67 262.532 1059.81 261.373 1059.67 247.61C1059.38 237.758 1058.66 232.108 1057.21 229.935C1053.45 223.996 1055.47 209.074 1061.4 200.382C1063 197.919 1064.15 192.993 1064.44 186.619C1064.73 181.114 1065.74 174.594 1066.61 171.987C1068.64 166.771 1067.19 162.425 1062.42 159.962C1060.1 158.803 1059.52 156.92 1059.52 151.705C1059.52 146.344 1060.39 144.171 1064.01 139.97C1068.35 135.044 1068.49 134.61 1067.62 123.889C1066.18 105.056 1066.03 103.607 1064.15 101.724C1061.26 98.8264 1046.36 99.4059 1041.58 102.448C1036.52 105.78 1035.65 108.533 1037.24 114.907C1039.13 121.716 1038.26 125.193 1034.79 125.193C1031.46 125.193 1029.87 119.978 1031.02 111.865C1032.04 104.187 1029 99.1161 1023.36 99.1161C1021.19 99.1161 1018.58 100.13 1017.57 101.289C1016.56 102.448 1014.68 103.462 1013.37 103.462C1012.07 103.462 1009.18 104.476 1006.86 105.635C1004.69 106.794 1002.24 107.519 1001.66 107.084C1000.93 106.649 999.341 103.028 998.039 99.1161C996.737 95.2046 995.001 91.5828 994.278 91.1482C993.555 90.5687 992.976 78.1097 992.976 63.0431C992.976 37.6905 992.831 35.5174 989.938 31.8956C987.768 29.1431 986.177 28.2738 983.573 28.9982C981.837 29.4328 979.956 29.1431 979.377 28.4187C978.943 27.6944 975.037 28.8533 970.263 31.1713C965.634 33.4892 961.294 35.3726 960.426 35.3726C959.703 35.5174 957.677 37.2559 956.086 39.2841C947.84 49.8597 944.223 53.1918 941.764 52.3226C939.449 51.4533 939.16 49.4251 939.594 35.6623C939.739 27.1149 939.16 17.5533 938.292 14.3661C937.424 11.179 936.411 6.9777 935.977 4.94949C935.543 2.92129 931.927 -2.58384 927.876 -7.36461C923.97 -12.0005 920.643 -17.3608 920.643 -19.2441C920.643 -20.9826 922.957 -27.5018 925.851 -33.7313L931.059 -45.0313L930.046 -61.6915C928.889 -82.8428 926.429 -87.7685 917.315 -87.7685C913.988 -87.7685 909.648 -86.7544 907.623 -85.5954Z" fill="#FAEADE"/>
<path d="M681.654 -67.7764C679.484 -66.3277 675.868 -61.9815 673.842 -57.9251C671.672 -54.0136 669.068 -49.2328 668.056 -47.2046C666.898 -45.1764 666.03 -41.12 666.03 -38.2226C666.03 -35.3251 665.452 -31.4136 664.728 -29.5303C664.005 -27.6469 662.992 -24.4597 662.414 -22.1418C661.98 -19.9687 658.652 -15.4777 655.18 -12.1456C651.564 -8.66872 648.67 -5.19181 648.67 -4.1777C648.67 -3.1636 648.092 -1.13539 647.368 0.313332C646.5 1.61718 645.488 5.23897 645.054 8.13641C644.475 11.6133 643.318 13.7864 641.582 14.3659C635.94 16.1044 634.204 20.3056 632.034 36.2415C627.404 72.4595 625.379 82.8902 621.328 92.5967C619.882 96.2185 619.014 102.448 619.014 109.981C619.014 120.702 619.448 122.295 623.064 127.076C626.247 131.277 626.97 133.74 626.97 140.259C626.97 147.503 627.549 148.952 632.034 154.022C635.94 158.368 637.097 160.831 637.097 165.322C637.097 171.697 639.122 174.449 643.752 174.449C647.079 174.449 651.564 167.206 651.564 161.845C651.564 158.658 655.759 154.167 658.652 154.167C659.52 154.167 661.98 152.429 663.86 150.401C666.609 147.358 667.477 144.895 667.477 139.825C667.477 132.292 668.056 131.422 680.931 123.744C685.56 120.992 690.19 117.37 691.202 115.776C694.385 110.706 697.712 97.3774 698.436 85.7877C698.87 77.2403 700.027 72.8941 703.065 67.389C706.537 60.8697 706.826 59.1313 706.103 49.5697C705.235 38.2697 707.116 25.8108 710.154 22.3338C712.468 19.7262 713.626 6.25307 714.638 -26.9226C715.651 -59.8085 713.047 -67.7764 701.04 -68.211C698.146 -68.3559 693.372 -68.9354 690.624 -69.5149C686.862 -70.2392 684.548 -69.8046 681.654 -67.7764Z" fill="#FAEADE"/>
<path d="M452.647 -36.9181C448.741 -35.904 445.269 -33.5861 441.508 -29.3848C438.47 -26.0527 436.01 -22.8656 436.01 -22.2861C436.01 -21.7066 432.104 -14.7527 427.33 -6.92966C422.556 1.03828 418.65 8.137 418.65 9.00623C418.65 10.5998 409.392 17.9883 407.222 17.9883C404.762 17.9883 403.026 22.7691 402.014 32.4755C401.001 41.0229 399.554 47.687 395.359 60.8703C394.636 63.3332 393.912 72.4601 393.768 81.1524C393.623 99.8409 392.321 103.752 382.628 114.618C372.936 125.483 371.634 128.815 368.74 149.532C365.413 173.001 366.281 187.054 371.634 197.774C373.948 202.12 376.263 207.481 376.842 209.943C377.42 212.261 380.024 219.795 382.484 226.604C385.088 233.413 387.981 242.105 389.138 246.161C394.202 265.429 396.806 277.019 396.95 280.931C397.095 287.305 398.831 289.478 402.882 288.174C409.97 286.001 413.008 280.931 418.072 263.546C420.82 253.84 428.777 243.988 433.84 243.988C435.576 243.988 438.036 245.147 439.193 246.451C444.69 252.825 445.414 256.013 445.558 280.351C445.848 301.647 446.282 305.124 448.886 310.34C452.358 317.149 455.83 319.611 459.302 317.873C460.604 317.149 464.51 311.788 467.982 305.993C471.454 300.199 475.36 294.259 476.662 292.81C477.964 291.361 481.436 284.118 484.474 276.874C487.367 269.486 490.694 261.373 491.852 258.765C493.009 256.158 493.877 251.232 493.877 247.755C493.877 243.409 494.745 240.801 496.77 238.918C498.362 237.469 499.808 236.6 500.098 236.89C505.74 244.713 506.029 246.017 506.463 270.065C506.752 293.245 509.067 308.601 513.986 321.205C514.854 323.523 515.577 327.869 515.577 331.056C515.577 338.01 521.364 347.861 526.572 349.745C528.597 350.614 531.78 350.759 533.805 350.324C539.013 349.02 545.957 339.893 545.957 334.388C545.957 331.925 547.259 325.406 548.85 319.901C550.586 314.396 552.612 307.297 553.48 304.11C555.071 298.75 559.845 289.043 561.87 287.45C562.449 287.015 564.04 283.828 565.487 280.206C567.802 274.556 568.091 269.051 568.236 238.918C568.38 212.986 568.959 203.279 570.406 200.672C572.72 196.47 572.865 136.349 570.55 129.974C569.682 127.801 566.644 122.586 563.896 118.529C559.266 111.865 557.964 110.996 551.02 109.402C546.68 108.388 542.774 106.94 542.34 106.215C536.988 97.8126 513.262 131.278 508.344 154.168C507.331 158.514 505.306 164.164 503.859 166.627C501.544 170.538 501.11 174.16 501.11 193.863C501.11 206.322 500.532 216.463 499.953 216.463C498.362 216.463 495.468 199.223 494.456 183.866C493.877 174.884 494.311 167.786 495.758 160.832C497.638 151.995 497.783 149.097 495.758 136.204C494.6 128.091 492.43 119.254 490.839 116.356C487.367 109.547 487.367 107.229 491.128 99.4062C493.877 94.046 494.166 91.728 493.154 83.4703C492.575 78.1101 491.852 65.2165 491.562 54.9306C490.839 24.7973 487.078 1.03827 480.134 -18.954C474.347 -35.6143 472.032 -38.5117 464.51 -38.3668C461.182 -38.222 455.83 -37.6425 452.647 -36.9181Z" fill="#FAEADE"/>
<path d="M246.496 110.995C246.496 112.01 244.471 116.79 242.156 121.571C239.841 126.352 237.816 130.988 237.816 131.712C237.816 132.581 235.935 134.899 233.621 136.927C230.872 139.39 227.255 146.054 222.915 156.92C214.38 178.216 211.342 180.679 201.939 173.435C197.743 170.393 196.441 169.958 194.271 171.262C192.825 172.276 190.799 173.001 189.787 173.001C187.183 173.001 179.949 180.534 179.949 183.286C179.949 184.735 179.371 186.039 178.503 186.329C176.477 187.053 171.414 202.12 171.125 208.639C170.835 214.579 167.508 226.024 162.879 236.744C160.853 241.67 159.985 247.899 159.407 261.662C158.973 271.803 157.96 280.93 157.237 281.944C156.369 282.958 155.211 286.725 154.633 290.347C153.62 297.445 152.752 300.922 148.557 314.25C146.242 321.929 145.953 327.868 146.242 368.867C146.387 408.707 146.821 415.806 148.991 421.745C152.752 432.031 153.909 432.9 165.049 432.9L174.886 433.045L175.754 441.013C177.201 452.748 176.188 455.5 170.835 455.5C166.061 455.5 158.249 461.585 158.249 465.207C158.249 466.366 156.369 471.291 154.054 476.217C147.399 490.849 146.097 495.775 147.833 501.715C151.161 513.304 152.463 527.212 150.727 533.152C148.557 540.395 145.374 544.162 141.757 543.583C138.864 543.148 138.719 541.989 138.285 524.459C137.996 511.566 138.575 503.453 140.021 498.383C141.179 494.326 142.481 482.447 143.059 472.161C143.638 461.73 144.651 452.603 145.519 451.589C146.242 450.72 146.676 447.677 146.387 445.07C146.097 441.448 145.229 440.144 142.915 439.854C141.179 439.565 139.153 437.826 138.285 435.798C137.128 433.48 135.392 432.321 133.077 432.321C128.737 432.321 125.699 438.985 127.001 445.649C128.014 451.154 124.542 461.585 119.479 467.815C116.585 471.291 116.151 473.03 117.019 477.956C117.453 481.143 117.887 486.213 117.743 489.256C117.743 492.298 118.611 498.527 119.913 503.018C122.806 512.87 121.938 521.127 116.73 532.138C114.705 536.484 112.824 543.293 112.535 547.349C112.39 551.406 111.667 558.07 111.233 561.981C110.365 568.5 110.654 569.515 113.981 572.702C118.9 577.338 119.189 586.32 114.705 591.1C110.075 596.026 109.063 603.849 110.943 618.481L112.679 631.52L118.611 633.548C123.963 635.431 125.121 635.286 131.197 632.824C139.153 629.491 141.034 626.015 139.877 616.308C139.009 609.065 139.153 608.775 142.481 609.354C145.663 609.789 145.953 610.513 146.387 619.93C146.821 630.071 149.135 635.141 153.475 635.141C154.488 635.141 157.815 633.548 160.853 631.809C169.099 626.594 174.886 625.87 177.345 629.781C183.566 639.488 184.723 646.586 184.868 673.532C185.013 693.525 185.447 700.479 187.038 702.217C189.208 704.97 199.913 705.549 204.253 703.376C205.555 702.652 209.751 700.768 213.512 699.03C218.141 696.857 222.481 693.09 226.532 687.875C235.791 675.995 236.948 677.154 237.961 699.609C239.118 724.672 242.156 735.248 249.679 740.608C252.861 742.926 256.623 749.88 256.623 753.647C256.623 755.095 254.308 760.745 251.559 766.395C247.075 775.377 246.496 777.55 246.641 787.981C246.641 803.482 248.377 812.754 251.849 817.39C254.453 820.722 255.755 821.302 261.107 820.867C268.485 820.432 280.637 813.768 284.833 808.118C286.424 805.945 290.041 801.309 292.934 797.832C301.035 787.981 304.363 780.158 304.363 770.886C304.363 766.395 304.941 762.484 305.665 762.049C306.243 761.615 307.256 758.572 307.69 755.385C308.124 751.763 310.149 747.707 312.898 744.52C316.37 740.608 317.383 738 317.383 733.509C317.383 727.57 321.289 722.209 325.629 722.065C326.641 722.065 330.113 716.559 333.441 709.75C339.083 698.016 339.661 697.436 344.146 697.436C355.864 697.436 362.808 691.207 364.255 679.617C365.267 672.229 365.701 671.215 369.173 670.345C371.343 669.911 373.513 668.752 374.092 667.883C374.671 667.013 375.539 666.724 375.973 667.303C376.407 667.738 374.815 671.07 372.356 674.691C370.041 678.313 368.016 682.659 368.016 684.398C368.016 686.281 365.123 692.511 361.506 698.595C357.021 705.984 354.996 711.054 354.996 714.676C354.851 717.574 353.694 722.499 352.103 725.686C349.065 731.916 348.341 742.781 350.656 748.721C352.247 752.922 356.732 755.675 359.915 754.516C362.953 753.357 368.016 744.954 368.016 741.188C368.016 739.449 370.765 735.393 374.237 731.916C380.747 725.397 383.061 720.181 387.691 701.058C389.427 693.815 391.452 689.468 394.779 685.847C399.553 680.631 402.302 674.836 403.025 668.462C403.315 665.854 404.472 664.695 407.221 664.406C411.271 663.971 413.875 659.19 416.913 646.297C420.385 632.099 418.071 623.697 411.127 625.435C407.076 626.449 402.591 634.852 401.434 644.124L400.566 649.918L396.515 646.731C393.043 643.979 392.175 643.834 390.15 645.572C388.848 646.586 386.967 649.629 385.81 652.091C382.483 660.204 381.036 657.597 381.036 643.399C381.036 632.824 380.457 628.767 378.143 624.276C376.551 621.089 375.249 615.729 375.249 611.962C375.105 599.503 372.645 587.768 368.884 581.684C365.557 576.613 365.267 575.165 366.859 572.412C367.871 570.384 368.45 562.706 368.45 551.116C368.305 531.993 367.293 528.226 357.889 512C356.298 509.248 354.996 505.481 354.996 503.743C354.996 498.672 350.511 490.559 347.184 489.69C343.278 488.531 339.661 492.877 337.491 500.845C336.623 504.177 334.453 509.683 332.573 513.015C330.692 516.347 328.811 521.127 328.233 523.59C327.654 525.908 326.641 528.226 325.918 528.661C325.195 529.24 324.616 531.413 324.616 533.586C324.616 535.904 323.748 538.512 322.591 539.381C321.433 540.395 320.131 544.452 319.553 548.653C318.974 552.709 317.961 557.056 317.238 558.359C316.659 559.518 315.647 562.995 315.213 565.893C314.634 569.804 312.175 573.861 306.677 579.656C302.482 584.291 297.563 591.1 295.683 595.012C290.764 605.008 288.16 607.036 282.807 604.863C278.178 602.835 276.876 599.068 276.876 587.334C276.876 580.815 280.927 565.024 284.833 556.186C285.845 553.724 288.449 548.218 290.33 543.872C292.355 539.381 295.538 533.441 297.419 530.689C300.891 525.474 306.388 509.827 310.873 491.718C312.319 486.503 314.055 481.288 315.068 480.129C320.71 472.885 321.144 469.408 317.527 451.879C316.804 447.822 316.081 438.261 316.081 430.438C315.936 415.516 314.489 410.445 308.124 403.636C305.52 400.739 304.941 397.842 304.363 384.803C303.639 370.461 303.35 369.302 300.601 368.867C296.406 368.288 286.569 378.284 282.084 387.7C278.757 394.799 272.391 403.347 270.366 403.347C269.064 403.347 269.643 397.552 271.668 390.598C272.825 386.831 274.561 380.602 275.719 376.69C277.021 371.475 279.191 368.143 283.82 364.231C289.751 358.871 289.896 358.581 289.896 349.454C289.896 344.384 290.764 337.285 291.921 333.663C293.079 330.186 294.381 320.77 294.815 312.657C295.249 304.544 296.261 295.127 297.129 291.506C300.167 279.771 297.129 250.362 291.198 233.122C289.317 227.907 288.594 227.327 283.965 226.893C279.191 226.458 278.612 225.879 276.731 220.374C275.719 217.042 274.417 206.176 273.983 196.325C273.404 181.548 272.825 178.071 270.8 176.767C268.919 175.608 267.617 175.898 264.869 178.506C262.988 180.244 261.252 181.693 260.818 181.693C260.529 181.693 260.239 173.58 260.239 163.729C260.239 146.344 260.095 145.765 256.623 142.867C253.295 140.26 253.006 138.811 252.861 128.235C252.717 121.716 252.138 114.907 251.704 112.879C250.836 109.257 246.496 107.808 246.496 110.995Z" fill="#FAEADE"/>
<path d="M653.154 256.012C648.814 259.199 646.21 262.386 645.342 265.574C644.763 268.181 642.449 273.107 640.423 276.294C638.398 279.626 636.083 284.552 635.505 287.304C633.624 295.852 638.398 326.13 643.027 335.547C643.751 336.995 644.329 339.603 644.329 341.486C644.329 343.37 646.355 347.571 648.814 350.903C651.273 354.38 653.588 359.595 654.022 362.783C654.601 366.984 656.047 369.736 659.375 372.344C670.948 381.761 674.999 385.817 680.062 392.771C684.402 398.711 686.427 400.449 689.61 400.449C691.78 400.449 693.516 399.725 693.516 399.001C693.516 396.972 698.724 397.117 702.63 399.29C704.366 400.16 709.429 403.636 713.769 406.968C718.109 410.301 724.041 414.067 726.789 415.371C733.01 417.979 756.301 419.862 759.918 417.834C761.365 417.11 763.969 413.053 765.849 408.997C770.334 398.421 769.611 384.224 764.258 377.125C760.641 372.344 751.961 354.815 748.779 346.122C747.911 343.66 746.898 339.024 746.609 335.692C745.741 328.303 740.822 317.583 736.482 313.671C733.155 310.629 722.594 302.081 715.071 296.286C712.612 294.258 708.561 290.057 706.247 286.87C700.749 279.192 686.283 264.27 684.257 264.27C683.534 264.27 680.062 261.662 676.735 258.33C668.344 250.072 661.979 249.493 653.154 256.012Z" fill="#FAEADE"/>
<path d="M34.2699 393.351C26.1686 396.538 21.9733 401.609 20.0926 410.591C19.5139 413.343 18.5013 416.241 17.9226 417.11C17.3439 417.834 16.3313 421.891 15.7526 425.947C14.7399 434.35 16.6206 437.247 23.2753 436.378C27.0366 435.943 27.3259 436.233 26.8919 441.014C24.7219 467.091 24.5773 465.932 28.1939 465.352C31.6659 464.918 41.6479 450.286 43.3839 442.897C43.9626 440.724 47.0006 434.06 50.0386 427.975C57.4166 413.633 59.8759 406.824 59.8759 399.436C59.8759 392.771 59.5866 392.627 48.3026 391.178C43.6733 390.598 39.6226 391.323 34.2699 393.351Z" fill="#FAEADE"/>
<path d="M633.914 414.068C631.6 416.241 629.14 422.036 627.838 428.12C627.26 430.873 625.813 432.177 623.064 432.756C616.41 434.205 615.252 435.799 614.384 444.781C613.372 454.777 611.491 457.384 601.509 462.165C597.458 464.049 593.118 466.801 591.672 468.395C588.055 472.306 583.57 486.359 583.57 493.747C583.57 502.874 580.822 514.754 577.639 520.259C575.324 524.025 574.89 527.213 575.18 539.092C575.324 550.392 574.746 554.883 572.431 561.258C568.236 572.702 565.776 598.779 566.5 624.277C567.223 651.513 568.38 653.975 580.098 653.975C584.294 653.975 588.2 654.555 588.634 655.424C589.936 657.452 596.88 657.163 599.918 654.7C606.138 650.064 614.674 631.375 615.976 619.496C617.133 608.775 620.171 603.125 627.115 598.49C631.166 595.737 632.323 593.854 633.625 586.9C635.506 577.483 638.544 571.978 642.739 570.674C644.62 570.095 645.922 568.067 646.356 565.169C646.79 562.561 647.802 555.897 648.67 550.392C652.287 526.488 657.35 500.556 659.665 493.168C663.282 481.288 663.86 472.161 661.112 466.511C659.81 463.759 658.797 461.006 658.797 460.137C658.797 459.413 657.784 457.964 656.627 456.95C655.18 455.791 654.457 452.459 654.457 446.664C654.457 439.42 653.878 437.682 650.551 434.64C647.947 432.177 645.922 427.976 644.33 421.891C642.594 414.647 641.437 412.619 638.978 412.329C637.386 412.04 635.072 412.909 633.914 414.068Z" fill="#FAEADE"/>
<path d="M73.6193 435.943C71.3046 437.102 67.5433 438.261 65.3733 438.695C62.3353 439.42 60.7439 441.448 57.7059 447.967C55.6806 452.458 52.9319 458.108 51.9193 460.571C50.7619 462.889 49.4599 467.235 49.0259 469.988C48.5919 472.74 46.7113 477.956 44.8306 481.577C32.9679 504.177 33.9806 500.845 33.8359 522.866C33.8359 549.088 37.7419 561.257 46.4219 561.257C51.0513 561.257 55.6806 550.826 56.6933 537.643C57.4166 528.081 57.5613 527.647 66.5306 517.65C71.4493 512 78.1039 503.743 81.1419 499.252L86.6393 490.994L87.0733 466.076L87.6519 441.158L83.8906 437.391C79.6953 433.335 79.5506 433.19 73.6193 435.943Z" fill="#FAEADE"/>
<path d="M804.041 487.082C802.45 488.097 796.085 498.527 793.481 504.032C792.757 505.626 790.443 508.523 788.417 510.407C786.392 512.435 784.656 514.608 784.656 515.332C784.656 516.636 782.197 522.721 778.146 531.558C773.083 542.423 770.189 551.695 770.189 557.055C770.189 560.243 769.177 564.444 767.875 566.327C765.415 570.094 765.705 585.595 768.887 612.396C769.755 620.075 770.045 629.491 769.466 633.258C766.139 658.031 767.73 682.37 773.227 690.482C776.844 695.553 776.699 699.609 772.938 705.694C770.045 710.33 769.9 711.634 771.057 728.294C771.781 738 772.215 747.852 772.07 750.314C771.636 756.979 775.687 797.108 777.133 800.005C777.857 801.309 778.869 805.511 779.448 809.132C780.75 817.535 787.26 834.775 791.166 839.555C795.361 844.771 798.11 845.35 808.237 843.032C818.797 840.57 824.005 835.644 830.949 821.302C833.409 816.376 836.591 811.161 838.038 809.857C839.629 808.408 842.233 804.062 843.825 800.15C846.139 795.08 848.454 792.182 852.649 789.864C859.159 786.098 862.776 778.999 862.776 770.017C862.776 766.975 863.789 761.325 865.091 757.413C868.707 745.534 870.299 735.248 871.022 718.008L871.601 701.493L878.111 695.118C881.583 691.496 884.476 688.164 884.476 687.44C884.476 686.861 885.633 685.267 887.08 683.818C891.999 679.472 895.76 661.508 897.062 635.431C897.641 624.276 897.207 620.799 894.603 613.845C892.867 609.209 890.986 604.863 890.263 603.994C889.684 603.27 888.527 600.227 887.659 597.475C886.791 594.722 884.476 587.768 882.306 582.263C875.941 565.313 870.154 543.438 868.707 530.689C867.405 519.389 866.537 517.795 862.197 517.795C858.725 517.795 849.756 525.618 849.756 528.661C849.756 534.455 843.101 550.536 838.472 555.462C832.541 562.271 830.081 562.561 824.295 557.635L820.099 554.013L819.231 529.095C818.363 502.294 817.061 495.775 811.419 489.69C807.803 485.779 806.645 485.344 804.041 487.082Z" fill="#FAEADE"/>
<path d="M-23.1619 672.229C-23.5959 673.533 -24.0299 676.43 -24.0299 678.748C-24.0299 681.935 -24.7533 682.95 -26.9233 682.95C-28.5146 682.95 -30.2506 684.108 -30.8293 685.412C-31.2633 686.861 -32.8546 690.628 -34.1566 693.815C-35.6033 697.002 -37.1946 703.666 -37.6286 708.737C-38.2073 713.662 -40.0879 722.644 -42.1133 728.584C-47.3213 744.81 -47.6106 747.997 -45.0066 762.049C-41.8239 779.869 -40.3773 783.635 -36.3266 785.808C-34.3013 786.823 -32.7099 788.271 -32.7099 788.851C-32.7099 789.43 -31.6973 790.879 -30.5399 792.183C-27.9359 794.646 -20.9919 793.197 -16.6519 789.285C-14.1926 787.112 -13.7586 787.112 -10.1419 790.01C-7.97197 791.748 -5.80198 793.052 -5.07865 793.052C-2.47465 793.052 0.563358 788.126 0.563358 783.78C0.563358 781.317 1.14203 778.565 1.7207 777.696C2.44403 776.971 4.18002 773.205 5.62669 769.293C8.66469 760.891 7.94135 749.591 3.60135 740.464C2.15469 737.132 -0.0153082 730.612 -0.883308 725.832C-1.89598 721.196 -3.77665 713.517 -5.36798 709.026C-6.81465 704.535 -8.2613 695.843 -8.55064 690.048C-8.98464 681.356 -9.70798 678.314 -12.4566 674.547C-16.2179 669.476 -21.7153 668.317 -23.1619 672.229Z" fill="#FAEADE"/>
</g>
</g>
</g>
<defs>
<filter id="filter0_f_52_139" x="-149.803" y="-408.602" width="1325.73" height="1521.71" filterUnits="userSpaceOnUse" color-interpolation-filters="sRGB">
<feFlood flood-opacity="0" result="BackgroundImageFix"/>
<feBlend mode="normal" in="SourceGraphic" in2="BackgroundImageFix" result="shape"/>
<feGaussianBlur stdDeviation="125" result="effect1_foregroundBlur_52_139"/>
</filter>
<radialGradient id="paint0_radial_52_139" cx="0" cy="0" r="1" gradientUnits="userSpaceOnUse" gradientTransform="translate(535.5 368.5) rotate(107.283) scale(665.433 728.24)">
<stop stop-color="#9C5D2D"/>
<stop offset="1" stop-color="#7D4620"/>
</radialGradient>
</defs>
</svg>
